<svg width="100" height="100" viewBox="0 0 332 154" fill="none" xmlns="http://www.w3.org/2000/svg" style="color: white">
  <g clip-path="url(#clip0_1_28)">
    <path d="M92.1009 18.1604C97.1272 18.1604 101.202 14.095 101.202 9.08019C101.202 4.06534 97.1272 0 92.1009 0C87.0746 0 83 4.06534 83 9.08019C83 14.095 87.0746 18.1604 92.1009 18.1604Z" fill="currentColor"/>
    <path d="M113.579 77C117.6 77 120.86 73.7477 120.86 69.7359C120.86 65.724 117.6 62.4717 113.579 62.4717C109.558 62.4717 106.298 65.724 106.298 69.7359C106.298 73.7477 109.558 77 113.579 77Z" fill="currentColor"/>
    <path d="M143.43 111.868C147.451 111.868 150.711 108.616 150.711 104.604C150.711 100.592 147.451 97.3396 143.43 97.3396C139.409 97.3396 136.149 100.592 136.149 104.604C136.149 108.616 139.409 111.868 143.43 111.868Z" fill="currentColor"/>
    <path d="M255.917 154C260.943 154 265.018 149.935 265.018 144.92C265.018 139.905 260.943 135.84 255.917 135.84C250.89 135.84 246.816 139.905 246.816 144.92C246.816 149.935 250.89 154 255.917 154Z" fill="currentColor"/>
    <path d="M255.917 80.6321C260.943 80.6321 265.018 76.5667 265.018 71.5519C265.018 66.537 260.943 62.4717 255.917 62.4717C250.89 62.4717 246.816 66.537 246.816 71.5519C246.816 76.5667 250.89 80.6321 255.917 80.6321Z" fill="currentColor"/>
    <path d="M197.307 17.7972C197.307 18.9896 197.072 20.1704 196.615 21.272C196.157 22.3737 195.487 23.3747 194.642 24.2178C193.796 25.061 192.793 25.7298 191.689 26.1862C190.585 26.6425 189.402 26.8774 188.206 26.8774C187.011 26.8774 185.828 26.6425 184.724 26.1862C183.619 25.7298 182.616 25.061 181.771 24.2178C180.926 23.3747 180.256 22.3737 179.798 21.272C179.341 20.1704 179.105 18.9896 179.105 17.7972H188.206H197.307Z" fill="currentColor"/>
    <path fill-rule="evenodd" clip-rule="evenodd" d="M70.2693 2.51992C74.2726 2.14384 77.5395 5.43152 77.5395 9.44339C77.5395 13.0541 74.5973 15.9458 70.9974 16.3122C38.887 19.5804 13.8336 46.6423 13.8336 79.5425C13.8336 107.191 31.5269 130.716 56.2329 139.462C59.6351 140.666 61.8072 144.161 60.9551 147.661C60.0059 151.559 56.0534 153.985 52.2522 152.676C36.7421 147.338 23.2626 137.201 13.8372 123.65C3.02245 108.102 -1.70483 89.1377 0.549937 70.3465C2.8047 51.5551 11.8851 34.2402 26.0727 21.6784C38.4378 10.7303 53.9346 4.05443 70.2693 2.51992Z" fill="currentColor"/>
    <path fill-rule="evenodd" clip-rule="evenodd" d="M261.367 0.029363C257.363 -0.346715 254.096 2.94097 254.096 6.95285C254.096 10.5635 257.039 13.4552 260.639 13.8216C292.749 17.0898 317.803 44.1517 317.803 77.0516C317.803 104.7 300.109 128.225 275.403 136.971C272.001 138.176 269.829 141.67 270.681 145.17C271.631 149.068 275.583 151.494 279.384 150.186C294.894 144.847 308.373 134.711 317.799 121.16C328.614 105.611 333.341 86.6475 331.086 67.8559C328.831 49.0645 319.751 31.7497 305.564 19.1878C293.198 8.23973 277.701 1.56388 261.367 0.029363Z" fill="currentColor"/>
    <path d="M49.5089 146.736C49.5089 143.125 52.4427 140.198 56.0615 140.198H195.123C198.742 140.198 201.675 143.125 201.675 146.736C201.675 150.347 198.742 153.274 195.123 153.274H56.0615C52.4427 153.274 49.5089 150.347 49.5089 146.736Z" fill="currentColor"/>
    <path d="M108.98 6.55856C111.667 4.13993 115.81 4.35255 118.234 7.03347L236.868 138.234C239.293 140.914 239.079 145.048 236.393 147.467C233.705 149.886 229.562 149.673 227.137 146.992L108.504 15.7921C106.08 13.1112 106.292 8.97718 108.98 6.55856Z" fill="currentColor"/>
    <path d="M130.325 7.99057C130.325 4.37988 133.259 1.45284 136.877 1.45284H240.263C243.882 1.45284 246.816 4.37988 246.816 7.99057C246.816 11.6013 243.882 14.5283 240.263 14.5283H136.877C133.259 14.5283 130.325 11.6013 130.325 7.99057Z" fill="currentColor"/>
    <path d="M97.8242 21.2736L96.4336 21.7045L107.688 57.8663L109.079 57.4354L97.8242 21.2736Z" fill="currentColor"/>
    <path d="M118.3 76.9997L117.219 77.9734L136.183 98.9275L137.264 97.9539L118.3 76.9997Z" fill="currentColor"/>
    <path d="M150.541 110.416L149.982 111.758L193.91 129.981L194.469 128.639L150.541 110.416Z" fill="currentColor"/>
    <path d="M155.375 74.5524L153.993 74.0943L147.071 94.8795L148.452 95.3376L155.375 74.5524Z" fill="currentColor"/>
    <path d="M198.223 26.8771L197.307 28.0067L244.527 66.1108L245.443 64.9812L198.223 26.8771Z" fill="currentColor"/>
    <path d="M257.502 86.4901L256.046 86.442L254.582 130.526L256.038 130.574L257.502 86.4901Z" fill="currentColor"/>
    <path d="M246.661 79.6404L245.822 78.4528L209.684 103.86L210.522 105.047L246.661 79.6404Z" fill="currentColor"/>
    <path d="M308.575 91.1125L309.019 89.729L266.918 76.2731L266.473 77.6567L308.575 91.1125Z" fill="currentColor"/>
    <path d="M305.787 45.1055L305.079 43.836L266.449 65.2855L267.157 66.5549L305.787 45.1055Z" fill="currentColor"/>
    <path d="M250.432 14.1005L248.985 14.2616L253.885 58.0982L255.332 57.9371L250.432 14.1005Z" fill="currentColor"/>
    <path d="M182.796 28.9588L181.483 28.3302L167.818 56.7363L169.13 57.3649L182.796 28.9588Z" fill="currentColor"/>
  </g>
  <defs>
    <clipPath id="clip0_1_28">
      <rect width="332" height="154" fill="white"/>
    </clipPath>
  </defs>
</svg>
